<?xml version="1.0" encoding="utf-8"?>
<!-- Generated by IcoMoon.io -->
<!DOCTYPE svg PUBLIC "-//W3C//DTD SVG 1.1//EN" "http://www.w3.org/Graphics/SVG/1.1/DTD/svg11.dtd">
<svg version="1.1" xmlns="http://www.w3.org/2000/svg" xmlns:xlink="http://www.w3.org/1999/xlink" width="35" height="32" viewBox="0 0 35 32">
<g id="icomoon-ignore">
	<line stroke-width="1" x1="" y1="" x2="" y2="" stroke="#449FDB" opacity=""></line>
</g>
	<path d="M6.369 23.942c2.786-6.239 5.57-12.479 8.357-18.719 0.247-0.001 0.495 0.001 0.742-0.001 1.149 2.514 2.283 5.035 3.427 7.551 0.564 1.252 1.137 2.501 1.698 3.755-0.761 0.302-1.526 0.595-2.286 0.897-0.572-1.225-1.124-2.459-1.688-3.688-0.5-1.096-1-2.192-1.499-3.288-0.022 0.025-0.042 0.053-0.058 0.082-1.744 3.838-3.486 7.676-5.23 11.514-0.26 0.581-0.532 1.158-0.785 1.742 0.401-0.129 0.787-0.302 1.182-0.448 6.067-2.361 12.134-4.721 18.201-7.083 0.205-0.070 0.399-0.173 0.61-0.222 0.331 0.807 0.685 1.605 1.014 2.413-7.454 2.8-14.909 5.594-22.363 8.393-0.056 0.021-0.117 0.017-0.175 0.019-0.818-0.003-1.637 0.003-2.455-0.003 0.418-0.98 0.881-1.939 1.31-2.914z" opacity="1" visibility="false" fill="#000000"></path>
	<path d="M21.482 24.42c0.759-0.302 1.521-0.594 2.279-0.897 0.523 1.104 1.021 2.221 1.529 3.333-0.898 0.002-1.795 0.005-2.693-0.002-0.369-0.812-0.747-1.621-1.115-2.434z" opacity="1" visibility="false" fill="#000000"></path>
</svg>
